<svg width="336.2px" height="77.630029296875px" xmlns="http://www.w3.org/2000/svg" viewBox="81.9 36.1849853515625 336.2 77.630029296875" style="background: rgb(243, 243, 243);" preserveAspectRatio="xMidYMid"><defs><filter id="editing-jagged" x="-100%" y="-100%" width="300%" height="300%"><feTurbulence result="turb" baseFrequency="0.06" numOctaves="1" seed="1"></feTurbulence><feDisplacementMap in="SourceGraphic" in2="turb" scale="2.5"></feDisplacementMap></filter></defs><g filter="url(#editing-jagged)"><g transform="translate(134.41812711954117, 90.82000064849854)"><path d="M14.80-24.50L14.80-24.50L14.80-24.50Q15.29-24.50 15.72-24.33L15.72-24.33L15.72-24.33Q16.15-24.15 16.50-23.84L16.50-23.84L16.50-23.84Q16.84-23.54 17.09-23.11L17.09-23.11L17.09-23.11Q17.33-22.68 17.44-22.18L17.44-22.18L20.46-8.16L21.06-8.16L21.06-8.16Q21.80-11.58 22.57-15.16L22.57-15.16L22.57-15.16Q23.34-18.74 24.12-22.18L24.12-22.18L24.12-22.18Q24.28-22.85 24.59-23.40L24.59-23.40L24.59-23.40Q24.87-23.85 25.37-24.23L25.37-24.23L25.37-24.23Q25.88-24.61 26.68-24.61L26.68-24.61L26.68-24.61Q27.30-24.61 27.76-24.39L27.76-24.39L27.76-24.39Q28.23-24.17 28.54-23.83L28.54-23.83L28.54-23.83Q28.85-23.48 29.00-23.08L29.00-23.08L29.00-23.08Q29.14-22.68 29.14-22.29L29.14-22.29L29.14-22.29Q29.14-22.08 29.13-21.88L29.13-21.88L29.13-21.88Q29.11-21.69 29.07-21.55L29.07-21.55L29.07-21.55Q29.04-21.38 29.00-21.23L29.00-21.23L24.19-2.11L24.19-2.11Q23.92-1.51 23.48-1.05L23.48-1.05L23.48-1.05Q23.12-0.65 22.53-0.33L22.53-0.33L22.53-0.33Q21.94 0 21.06 0L21.06 0L20.46 0L20.46 0Q19.58 0 19.02-0.33L19.02-0.33L19.02-0.33Q18.46-0.65 18.12-1.05L18.12-1.05L18.12-1.05Q17.74-1.51 17.54-2.11L17.54-2.11L15.08-12.41L14.48-12.41L14.48-12.41Q13.92-9.91 13.28-7.26L13.28-7.26L13.28-7.26Q12.64-4.61 12.06-2.11L12.06-2.11L12.06-2.11Q11.83-1.51 11.44-1.05L11.44-1.05L11.44-1.05Q11.09-0.65 10.54-0.33L10.54-0.33L10.54-0.33Q9.98 0 9.11 0L9.11 0L8.51 0L8.51 0Q7.63 0 7.02-0.33L7.02-0.33L7.02-0.33Q6.42-0.65 6.03-1.05L6.03-1.05L6.03-1.05Q5.57-1.51 5.31-2.11L5.31-2.11L0.56-21.23L0.56-21.23Q0.53-21.38 0.49-21.55L0.49-21.55L0.49-21.55Q0.46-21.69 0.44-21.88L0.44-21.88L0.44-21.88Q0.42-22.08 0.42-22.29L0.42-22.29L0.42-22.29Q0.42-22.68 0.57-23.08L0.57-23.08L0.57-23.08Q0.72-23.48 1.03-23.83L1.03-23.83L1.03-23.83Q1.34-24.17 1.80-24.39L1.80-24.39L1.80-24.39Q2.27-24.61 2.88-24.61L2.88-24.61L2.88-24.61Q3.69-24.61 4.19-24.23L4.19-24.23L4.19-24.23Q4.69-23.85 4.97-23.40L4.97-23.40L4.97-23.40Q5.29-22.85 5.45-22.18L5.45-22.18L8.51-8.16L9.11-8.16L9.11-8.16Q9.44-9.77 9.83-11.56L9.83-11.56L9.83-11.56Q10.21-13.34 10.61-15.16L10.61-15.16L10.61-15.16Q11.00-16.98 11.40-18.76L11.40-18.76L11.40-18.76Q11.79-20.55 12.16-22.18L12.16-22.18L12.16-22.18Q12.41-23.19 13.11-23.84L13.11-23.84L13.11-23.84Q13.82-24.50 14.80-24.50ZM46.09-11.29L46.09-3.97L46.09-3.97Q46.09-3.23 46.01-2.52L46.01-2.52L46.01-2.52Q45.93-1.81 45.66-1.25L45.66-1.25L45.66-1.25Q45.39-0.69 44.86-0.34L44.86-0.34L44.86-0.34Q44.33 0 43.42 0L43.42 0L43.42 0Q42.50 0 41.97-0.34L41.97-0.34L41.97-0.34Q41.43-0.69 41.14-1.25L41.14-1.25L41.14-1.25Q40.85-1.81 40.76-2.52L40.76-2.52L40.76-2.52Q40.68-3.23 40.68-3.97L40.68-3.97L40.68-10.90L40.68-10.90Q40.68-11.36 40.64-11.80L40.64-11.80L40.64-11.80Q40.61-12.25 40.45-12.60L40.45-12.60L40.45-12.60Q40.29-12.96 39.98-13.17L39.98-13.17L39.98-13.17Q39.67-13.39 39.13-13.39L39.13-13.39L39.13-13.39Q38.43-13.39 37.99-12.93L37.99-12.93L37.99-12.93Q37.55-12.46 37.29-11.65L37.29-11.65L37.29-11.65Q37.04-10.83 36.94-9.71L36.94-9.71L36.94-9.71Q36.84-8.60 36.84-7.31L36.84-7.31L36.84-3.97L36.84-3.97Q36.84-3.23 36.76-2.52L36.76-2.52L36.76-2.52Q36.69-1.81 36.40-1.25L36.40-1.25L36.40-1.25Q36.12-0.69 35.58-0.34L35.58-0.34L35.58-0.34Q35.03 0 34.10 0L34.10 0L34.10 0Q33.19 0 32.66-0.34L32.66-0.34L32.66-0.34Q32.13-0.69 31.86-1.25L31.86-1.25L31.86-1.25Q31.59-1.81 31.51-2.52L31.51-2.52L31.51-2.52Q31.43-3.23 31.43-3.97L31.43-3.97L31.43-20.64L31.43-20.64Q31.43-21.38 31.51-22.09L31.51-22.09L31.51-22.09Q31.59-22.80 31.86-23.36L31.86-23.36L31.86-23.36Q32.13-23.92 32.66-24.27L32.66-24.27L32.66-24.27Q33.19-24.61 34.10-24.61L34.10-24.61L34.10-24.61Q35.03-24.61 35.58-24.27L35.58-24.27L35.58-24.27Q36.12-23.92 36.40-23.36L36.40-23.36L36.40-23.36Q36.69-22.80 36.76-22.09L36.76-22.09L36.76-22.09Q36.84-21.38 36.84-20.64L36.84-20.64L36.84-14.63L36.84-14.63Q37.00-15.13 37.30-15.66L37.30-15.66L37.30-15.66Q37.60-16.19 38.07-16.61L38.07-16.61L38.07-16.61Q38.55-17.03 39.19-17.31L39.19-17.31L39.19-17.31Q39.83-17.58 40.68-17.58L40.68-17.58L40.68-17.58Q41.64-17.58 42.62-17.25L42.62-17.25L42.62-17.25Q43.59-16.93 44.36-16.19L44.36-16.19L44.36-16.19Q45.12-15.45 45.61-14.25L45.61-14.25L45.61-14.25Q46.09-13.04 46.09-11.29L46.09-11.29ZM64.05-11.11L64.05-10.02L64.05-10.02Q64.05-9.74 64.02-9.36L64.02-9.36L64.02-9.36Q63.98-8.98 63.75-8.64L63.75-8.64L63.75-8.64Q63.51-8.30 63-8.05L63-8.05L63-8.05Q62.49-7.80 61.56-7.80L61.56-7.80L54.56-7.80L54.56-6.12L54.56-6.12Q54.56-5.70 54.67-5.24L54.67-5.24L54.67-5.24Q54.77-4.78 55.03-4.39L55.03-4.39L55.03-4.39Q55.28-4.01 55.71-3.76L55.71-3.76L55.71-3.76Q56.13-3.52 56.74-3.52L56.74-3.52L56.74-3.52Q57.45-3.52 57.82-3.68L57.82-3.68L57.82-3.68Q58.20-3.85 58.42-4.10L58.42-4.10L58.42-4.10Q58.64-4.34 58.82-4.62L58.82-4.62L58.82-4.62Q58.99-4.90 59.28-5.15L59.28-5.15L59.28-5.15Q59.57-5.40 60.09-5.56L60.09-5.56L60.09-5.56Q60.61-5.73 61.52-5.73L61.52-5.73L61.52-5.73Q61.96-5.73 62.38-5.66L62.38-5.66L62.38-5.66Q62.79-5.59 63.11-5.40L63.11-5.40L63.11-5.40Q63.42-5.20 63.62-4.86L63.62-4.86L63.62-4.86Q63.81-4.52 63.81-3.97L63.81-3.97L63.81-3.97Q63.81-2.83 63.09-2.07L63.09-2.07L63.09-2.07Q62.37-1.30 61.28-0.84L61.28-0.84L61.28-0.84Q60.19-0.39 58.91-0.19L58.91-0.19L58.91-0.19Q57.64 0 56.53 0L56.53 0L56.53 0Q55.07-0.02 53.75-0.37L53.75-0.37L53.75-0.37Q52.44-0.72 51.42-1.49L51.42-1.49L51.42-1.49Q50.41-2.27 49.82-3.52L49.82-3.52L49.82-3.52Q49.22-4.76 49.22-6.57L49.22-6.57L49.22-10.69L49.22-10.69Q49.22-12.36 49.61-13.52L49.61-13.52L49.61-13.52Q50.01-14.68 50.64-15.45L50.64-15.45L50.64-15.45Q51.28-16.22 52.07-16.66L52.07-16.66L52.07-16.66Q52.86-17.09 53.67-17.30L53.67-17.30L53.67-17.30Q54.47-17.51 55.20-17.56L55.20-17.56L55.20-17.56Q55.93-17.61 56.46-17.61L56.46-17.61L56.46-17.61Q58.24-17.61 59.49-17.30L59.49-17.30L59.49-17.30Q60.75-16.98 61.59-16.47L61.59-16.47L61.59-16.47Q62.44-15.96 62.93-15.29L62.93-15.29L62.93-15.29Q63.42-14.63 63.67-13.91L63.67-13.91L63.67-13.91Q63.91-13.20 63.98-12.47L63.98-12.47L63.98-12.47Q64.05-11.74 64.05-11.11L64.05-11.11ZM54.56-11.67L54.56-10.44L58.96-10.44L58.96-10.44Q58.96-11.27 58.91-11.91L58.91-11.91L58.91-11.91Q58.87-12.55 58.65-12.99L58.65-12.99L58.65-12.99Q58.43-13.43 57.96-13.66L57.96-13.66L57.96-13.66Q57.50-13.89 56.64-13.89L56.64-13.89L56.64-13.89Q55.92-13.89 55.50-13.66L55.50-13.66L55.50-13.66Q55.09-13.43 54.88-13.09L54.88-13.09L54.88-13.09Q54.67-12.74 54.62-12.36L54.62-12.36L54.62-12.36Q54.56-11.97 54.56-11.67L54.56-11.67ZM81.98-11.11L81.98-10.02L81.98-10.02Q81.98-9.74 81.95-9.36L81.95-9.36L81.95-9.36Q81.91-8.98 81.68-8.64L81.68-8.64L81.68-8.64Q81.44-8.30 80.93-8.05L80.93-8.05L80.93-8.05Q80.42-7.80 79.49-7.80L79.49-7.80L72.49-7.80L72.49-6.12L72.49-6.12Q72.49-5.70 72.60-5.24L72.60-5.24L72.60-5.24Q72.70-4.78 72.96-4.39L72.96-4.39L72.96-4.39Q73.21-4.01 73.63-3.76L73.63-3.76L73.63-3.76Q74.06-3.52 74.67-3.52L74.67-3.52L74.67-3.52Q75.38-3.52 75.75-3.68L75.75-3.68L75.75-3.68Q76.13-3.85 76.35-4.10L76.35-4.10L76.35-4.10Q76.57-4.34 76.75-4.62L76.75-4.62L76.75-4.62Q76.92-4.90 77.21-5.15L77.21-5.15L77.21-5.15Q77.50-5.40 78.02-5.56L78.02-5.56L78.02-5.56Q78.54-5.73 79.45-5.73L79.45-5.73L79.45-5.73Q79.89-5.73 80.31-5.66L80.31-5.66L80.31-5.66Q80.72-5.59 81.04-5.40L81.04-5.40L81.04-5.40Q81.35-5.20 81.54-4.86L81.54-4.86L81.54-4.86Q81.74-4.52 81.74-3.97L81.74-3.97L81.74-3.97Q81.74-2.83 81.02-2.07L81.02-2.07L81.02-2.07Q80.30-1.30 79.21-0.84L79.21-0.84L79.21-0.84Q78.12-0.39 76.84-0.19L76.84-0.19L76.84-0.19Q75.57 0 74.46 0L74.46 0L74.46 0Q73.00-0.02 71.68-0.37L71.68-0.37L71.68-0.37Q70.37-0.72 69.35-1.49L69.35-1.49L69.35-1.49Q68.34-2.27 67.75-3.52L67.75-3.52L67.75-3.52Q67.15-4.76 67.15-6.57L67.15-6.57L67.15-10.69L67.15-10.69Q67.15-12.36 67.54-13.52L67.54-13.52L67.54-13.52Q67.94-14.68 68.57-15.45L68.57-15.45L68.57-15.45Q69.21-16.22 70.00-16.66L70.00-16.66L70.00-16.66Q70.79-17.09 71.60-17.30L71.60-17.30L71.60-17.30Q72.40-17.51 73.13-17.56L73.13-17.56L73.13-17.56Q73.86-17.61 74.39-17.61L74.39-17.61L74.39-17.61Q76.17-17.61 77.42-17.30L77.42-17.30L77.42-17.30Q78.68-16.98 79.52-16.47L79.52-16.47L79.52-16.47Q80.37-15.96 80.86-15.29L80.86-15.29L80.86-15.29Q81.35-14.63 81.60-13.91L81.60-13.91L81.60-13.91Q81.84-13.20 81.91-12.47L81.91-12.47L81.91-12.47Q81.98-11.74 81.98-11.11L81.98-11.11ZM72.49-11.67L72.49-10.44L76.89-10.44L76.89-10.44Q76.89-11.27 76.84-11.91L76.84-11.91L76.84-11.91Q76.80-12.55 76.58-12.99L76.58-12.99L76.58-12.99Q76.36-13.43 75.89-13.66L75.89-13.66L75.89-13.66Q75.43-13.89 74.57-13.89L74.57-13.89L74.57-13.89Q73.85-13.89 73.43-13.66L73.43-13.66L73.43-13.66Q73.02-13.43 72.81-13.09L72.81-13.09L72.81-13.09Q72.60-12.74 72.54-12.36L72.54-12.36L72.54-12.36Q72.49-11.97 72.49-11.67L72.49-11.67ZM85.92-3.94L85.92-20.71L85.92-20.71Q85.92-21.45 86.00-22.15L86.00-22.15L86.00-22.15Q86.08-22.85 86.36-23.40L86.36-23.40L86.36-23.40Q86.64-23.94 87.17-24.28L87.17-24.28L87.17-24.28Q87.70-24.61 88.59-24.61L88.59-24.61L88.59-24.61Q89.51-24.61 90.04-24.28L90.04-24.28L90.04-24.28Q90.56-23.94 90.83-23.40L90.83-23.40L90.83-23.40Q91.11-22.85 91.19-22.15L91.19-22.15L91.19-22.15Q91.27-21.45 91.27-20.71L91.27-20.71L91.27-3.94L91.27-3.94Q91.27-3.20 91.19-2.49L91.19-2.49L91.19-2.49Q91.11-1.78 90.83-1.22L90.83-1.22L90.83-1.22Q90.56-0.67 90.04-0.33L90.04-0.33L90.04-0.33Q89.51 0 88.59 0L88.59 0L88.59 0Q87.70 0 87.17-0.33L87.17-0.33L87.17-0.33Q86.64-0.67 86.36-1.22L86.36-1.22L86.36-1.22Q86.08-1.78 86.00-2.49L86.00-2.49L86.00-2.49Q85.92-3.20 85.92-3.94L85.92-3.94ZM100.55-12.97L100.55-12.97L100.55-12.97Q100.55-12.62 100.78-12.32L100.78-12.32L100.78-12.32Q101.00-12.02 101.40-11.75L101.40-11.75L101.40-11.75Q101.79-11.48 102.31-11.21L102.31-11.21L102.31-11.21Q102.83-10.95 103.39-10.69L103.39-10.69L103.39-10.69Q104.26-10.27 105.15-9.78L105.15-9.78L105.15-9.78Q106.05-9.30 106.79-8.65L106.79-8.65L106.79-8.65Q107.53-8.00 107.99-7.15L107.99-7.15L107.99-7.15Q108.46-6.29 108.46-5.13L108.46-5.13L108.46-5.13Q108.46-4.08 108.15-3.27L108.15-3.27L108.15-3.27Q107.84-2.46 107.33-1.87L107.33-1.87L107.33-1.87Q106.82-1.28 106.15-0.90L106.15-0.90L106.15-0.90Q105.47-0.51 104.72-0.28L104.72-0.28L104.72-0.28Q103.97-0.05 103.20 0.04L103.20 0.04L103.20 0.04Q102.43 0.14 101.74 0.14L101.74 0.14L101.74 0.14Q100.39 0.14 99.39-0.09L99.39-0.09L99.39-0.09Q98.38-0.32 97.66-0.69L97.66-0.69L97.66-0.69Q96.94-1.07 96.48-1.56L96.48-1.56L96.48-1.56Q96.01-2.04 95.75-2.57L95.75-2.57L95.75-2.57Q95.48-3.09 95.38-3.61L95.38-3.61L95.38-3.61Q95.27-4.13 95.27-4.57L95.27-4.57L95.27-4.57Q95.27-5.63 95.86-6.12L95.86-6.12L95.86-6.12Q96.45-6.61 97.66-6.61L97.66-6.61L97.66-6.61Q98.54-6.61 99.11-6.13L99.11-6.13L99.11-6.13Q99.67-5.66 99.70-4.61L99.70-4.61L99.70-4.61Q99.72-4.25 99.91-4.04L99.91-4.04L99.91-4.04Q100.09-3.83 100.38-3.70L100.38-3.70L100.38-3.70Q100.67-3.57 101.02-3.52L101.02-3.52L101.02-3.52Q101.37-3.48 101.71-3.48L101.71-3.48L101.71-3.48Q102.39-3.48 102.82-3.84L102.82-3.84L102.82-3.84Q103.25-4.20 103.25-4.78L103.25-4.78L103.25-4.78Q103.25-5.27 102.96-5.70L102.96-5.70L102.96-5.70Q102.67-6.13 102.20-6.50L102.20-6.50L102.20-6.50Q101.72-6.87 101.12-7.22L101.12-7.22L101.12-7.22Q100.51-7.56 99.88-7.91L99.88-7.91L99.88-7.91Q99.09-8.33 98.29-8.81L98.29-8.81L98.29-8.81Q97.49-9.28 96.84-9.86L96.84-9.86L96.84-9.86Q96.19-10.44 95.78-11.17L95.78-11.17L95.78-11.17Q95.38-11.90 95.38-12.83L95.38-12.83L95.38-12.83Q95.38-14.20 95.83-15.13L95.83-15.13L95.83-15.13Q96.28-16.05 97.14-16.62L97.14-16.62L97.14-16.62Q98.00-17.19 99.24-17.44L99.24-17.44L99.24-17.44Q100.48-17.68 102.06-17.72L102.06-17.72L102.34-17.72L102.34-17.72Q103.76-17.72 104.76-17.47L104.76-17.47L104.76-17.47Q105.75-17.23 106.41-16.83L106.41-16.83L106.41-16.83Q107.07-16.44 107.45-15.94L107.45-15.94L107.45-15.94Q107.82-15.45 108.01-14.95L108.01-14.95L108.01-14.95Q108.19-14.45 108.24-13.99L108.24-13.99L108.24-13.99Q108.28-13.54 108.28-13.22L108.28-13.22L108.28-13.22Q108.28-12.69 108.06-12.35L108.06-12.35L108.06-12.35Q107.84-12.01 107.48-11.80L107.48-11.80L107.48-11.80Q107.12-11.60 106.66-11.52L106.66-11.52L106.66-11.52Q106.21-11.44 105.71-11.43L105.71-11.43L105.71-11.43Q105.29-11.43 104.95-11.57L104.95-11.57L104.95-11.57Q104.61-11.71 104.36-11.92L104.36-11.92L104.36-11.92Q104.12-12.13 103.98-12.39L103.98-12.39L103.98-12.39Q103.85-12.66 103.85-12.90L103.85-12.90L103.85-12.90Q103.82-13.57 103.32-13.92L103.32-13.92L103.32-13.92Q102.81-14.27 102.09-14.27L102.09-14.27L102.09-14.27Q101.79-14.27 101.52-14.21L101.52-14.21L101.52-14.21Q101.25-14.15 101.03-14.00L101.03-14.00L101.03-14.00Q100.81-13.85 100.68-13.61L100.68-13.61L100.68-13.61Q100.55-13.36 100.55-12.97ZM140.59-11.29L140.59-3.97L140.59-3.97Q140.59-3.23 140.51-2.52L140.51-2.52L140.51-2.52Q140.43-1.81 140.16-1.25L140.16-1.25L140.16-1.25Q139.89-0.69 139.36-0.34L139.36-0.34L139.36-0.34Q138.83 0 137.92 0L137.92 0L137.92 0Q137.00 0 136.47-0.34L136.47-0.34L136.47-0.34Q135.93-0.69 135.64-1.25L135.64-1.25L135.64-1.25Q135.35-1.81 135.26-2.52L135.26-2.52L135.26-2.52Q135.18-3.23 135.18-3.97L135.18-3.97L135.18-10.90L135.18-10.90Q135.18-11.36 135.14-11.80L135.14-11.80L135.14-11.80Q135.11-12.25 134.95-12.60L134.95-12.60L134.95-12.60Q134.79-12.96 134.48-13.17L134.48-13.17L134.48-13.17Q134.17-13.39 133.63-13.39L133.63-13.39L133.63-13.39Q132.93-13.39 132.49-12.93L132.49-12.93L132.49-12.93Q132.05-12.46 131.79-11.65L131.79-11.65L131.79-11.65Q131.54-10.83 131.44-9.71L131.44-9.71L131.44-9.71Q131.34-8.60 131.34-7.31L131.34-7.31L131.34-3.97L131.34-3.97Q131.34-3.23 131.26-2.52L131.26-2.52L131.26-2.52Q131.19-1.81 130.90-1.25L130.90-1.25L130.90-1.25Q130.62-0.69 130.08-0.34L130.08-0.34L130.08-0.34Q129.53 0 128.60 0L128.60 0L128.60 0Q127.69 0 127.16-0.34L127.16-0.34L127.16-0.34Q126.63-0.69 126.36-1.25L126.36-1.25L126.36-1.25Q126.09-1.81 126.01-2.52L126.01-2.52L126.01-2.52Q125.93-3.23 125.93-3.97L125.93-3.97L125.93-20.64L125.93-20.64Q125.93-21.38 126.01-22.09L126.01-22.09L126.01-22.09Q126.09-22.80 126.36-23.36L126.36-23.36L126.36-23.36Q126.63-23.92 127.16-24.27L127.16-24.27L127.16-24.27Q127.69-24.61 128.60-24.61L128.60-24.61L128.60-24.61Q129.53-24.61 130.08-24.27L130.08-24.27L130.08-24.27Q130.62-23.92 130.90-23.36L130.90-23.36L130.90-23.36Q131.19-22.80 131.26-22.09L131.26-22.09L131.26-22.09Q131.34-21.38 131.34-20.64L131.34-20.64L131.34-14.63L131.34-14.63Q131.50-15.13 131.80-15.66L131.80-15.66L131.80-15.66Q132.10-16.19 132.57-16.61L132.57-16.61L132.57-16.61Q133.05-17.03 133.69-17.31L133.69-17.31L133.69-17.31Q134.33-17.58 135.18-17.58L135.18-17.58L135.18-17.58Q136.14-17.58 137.12-17.25L137.12-17.25L137.12-17.25Q138.09-16.93 138.86-16.19L138.86-16.19L138.86-16.19Q139.62-15.45 140.11-14.25L140.11-14.25L140.11-14.25Q140.59-13.04 140.59-11.29L140.59-11.29ZM144.81-3.94L144.81-13.64L144.81-13.64Q144.81-14.38 144.89-15.08L144.89-15.08L144.89-15.08Q144.97-15.79 145.25-16.34L145.25-16.34L145.25-16.34Q145.53-16.89 146.06-17.24L146.06-17.24L146.06-17.24Q146.58-17.58 147.48-17.58L147.48-17.58L147.48-17.58Q148.38-17.58 148.90-17.24L148.90-17.24L148.90-17.24Q149.43-16.89 149.71-16.34L149.71-16.34L149.71-16.34Q149.99-15.79 150.07-15.08L150.07-15.08L150.07-15.08Q150.15-14.38 150.15-13.64L150.15-13.64L150.15-3.94L150.15-3.94Q150.15-3.20 150.07-2.49L150.07-2.49L150.07-2.49Q149.99-1.78 149.71-1.22L149.71-1.22L149.71-1.22Q149.43-0.67 148.90-0.33L148.90-0.33L148.90-0.33Q148.38 0 147.48 0L147.48 0L147.48 0Q146.58 0 146.06-0.33L146.06-0.33L146.06-0.33Q145.53-0.67 145.25-1.22L145.25-1.22L145.25-1.22Q144.97-1.78 144.89-2.49L144.89-2.49L144.89-2.49Q144.81-3.20 144.81-3.94L144.81-3.94ZM150.19-21.94L150.19-21.94L150.19-21.94Q150.19-20.58 149.48-19.92L149.48-19.92L149.48-19.92Q148.78-19.27 147.52-19.27L147.52-19.27L147.52-19.27Q146.25-19.27 145.55-19.92L145.55-19.92L145.55-19.92Q144.84-20.58 144.84-21.94L144.84-21.94L144.84-21.94Q144.84-23.34 145.55-23.98L145.55-23.98L145.55-23.98Q146.25-24.61 147.52-24.61L147.52-24.61L147.52-24.61Q148.87-24.61 149.53-23.98L149.53-23.98L149.53-23.98Q150.19-23.34 150.19-21.94ZM159.89-12.97L159.89-12.97L159.89-12.97Q159.89-12.62 160.12-12.32L160.12-12.32L160.12-12.32Q160.35-12.02 160.74-11.75L160.74-11.75L160.74-11.75Q161.14-11.48 161.66-11.21L161.66-11.21L161.66-11.21Q162.18-10.95 162.74-10.69L162.74-10.69L162.74-10.69Q163.60-10.27 164.50-9.78L164.50-9.78L164.50-9.78Q165.39-9.30 166.13-8.65L166.13-8.65L166.13-8.65Q166.87-8.00 167.33-7.15L167.33-7.15L167.33-7.15Q167.80-6.29 167.80-5.13L167.80-5.13L167.80-5.13Q167.80-4.08 167.49-3.27L167.49-3.27L167.49-3.27Q167.19-2.46 166.68-1.87L166.68-1.87L166.68-1.87Q166.17-1.28 165.49-0.90L165.49-0.90L165.49-0.90Q164.81-0.51 164.07-0.28L164.07-0.28L164.07-0.28Q163.32-0.05 162.54 0.04L162.54 0.04L162.54 0.04Q161.77 0.14 161.09 0.14L161.09 0.14L161.09 0.14Q159.73 0.14 158.73-0.09L158.73-0.09L158.73-0.09Q157.73-0.32 157.01-0.69L157.01-0.69L157.01-0.69Q156.29-1.07 155.82-1.56L155.82-1.56L155.82-1.56Q155.36-2.04 155.09-2.57L155.09-2.57L155.09-2.57Q154.83-3.09 154.72-3.61L154.72-3.61L154.72-3.61Q154.62-4.13 154.62-4.57L154.62-4.57L154.62-4.57Q154.62-5.63 155.21-6.12L155.21-6.12L155.21-6.12Q155.79-6.61 157.01-6.61L157.01-6.61L157.01-6.61Q157.89-6.61 158.45-6.13L158.45-6.13L158.45-6.13Q159.01-5.66 159.05-4.61L159.05-4.61L159.05-4.61Q159.06-4.25 159.25-4.04L159.25-4.04L159.25-4.04Q159.43-3.83 159.72-3.70L159.72-3.70L159.72-3.70Q160.01-3.57 160.37-3.52L160.37-3.52L160.37-3.52Q160.72-3.48 161.05-3.48L161.05-3.48L161.05-3.48Q161.74-3.48 162.17-3.84L162.17-3.84L162.17-3.84Q162.60-4.20 162.60-4.78L162.60-4.78L162.60-4.78Q162.60-5.27 162.31-5.70L162.31-5.70L162.31-5.70Q162.02-6.13 161.54-6.50L161.54-6.50L161.54-6.50Q161.07-6.87 160.46-7.22L160.46-7.22L160.46-7.22Q159.86-7.56 159.22-7.91L159.22-7.91L159.22-7.91Q158.43-8.33 157.63-8.81L157.63-8.81L157.63-8.81Q156.83-9.28 156.18-9.86L156.18-9.86L156.18-9.86Q155.53-10.44 155.13-11.17L155.13-11.17L155.13-11.17Q154.72-11.90 154.72-12.83L154.72-12.83L154.72-12.83Q154.72-14.20 155.17-15.13L155.17-15.13L155.17-15.13Q155.62-16.05 156.48-16.62L156.48-16.62L156.48-16.62Q157.34-17.19 158.58-17.44L158.58-17.44L158.58-17.44Q159.82-17.68 161.40-17.72L161.40-17.72L161.68-17.72L161.68-17.72Q163.11-17.72 164.10-17.47L164.10-17.47L164.10-17.47Q165.09-17.23 165.75-16.83L165.75-16.83L165.75-16.83Q166.41-16.44 166.79-15.94L166.79-15.94L166.79-15.94Q167.17-15.45 167.35-14.95L167.35-14.95L167.35-14.95Q167.54-14.45 167.58-13.99L167.58-13.99L167.58-13.99Q167.63-13.54 167.63-13.22L167.63-13.22L167.63-13.22Q167.63-12.69 167.41-12.35L167.41-12.35L167.41-12.35Q167.19-12.01 166.83-11.80L166.83-11.80L166.83-11.80Q166.46-11.60 166.01-11.52L166.01-11.52L166.01-11.52Q165.55-11.44 165.06-11.43L165.06-11.43L165.06-11.43Q164.64-11.43 164.29-11.57L164.29-11.57L164.29-11.57Q163.95-11.71 163.71-11.92L163.71-11.92L163.71-11.92Q163.46-12.13 163.33-12.39L163.33-12.39L163.33-12.39Q163.20-12.66 163.20-12.90L163.20-12.90L163.20-12.90Q163.16-13.57 162.66-13.92L162.66-13.92L162.66-13.92Q162.16-14.27 161.44-14.27L161.44-14.27L161.44-14.27Q161.14-14.27 160.87-14.21L160.87-14.21L160.87-14.21Q160.59-14.15 160.37-14.00L160.37-14.00L160.37-14.00Q160.15-13.85 160.02-13.61L160.02-13.61L160.02-13.61Q159.89-13.36 159.89-12.97ZM172.65-17.58L173.64-17.58L173.64-20.67L173.64-20.67Q173.64-21.41 173.72-22.11L173.72-22.11L173.72-22.11Q173.79-22.82 174.08-23.37L174.08-23.37L174.08-23.37Q174.36-23.92 174.88-24.27L174.88-24.27L174.88-24.27Q175.41-24.61 176.31-24.61L176.31-24.61L176.31-24.61Q177.19-24.61 177.71-24.27L177.71-24.27L177.71-24.27Q178.24-23.92 178.51-23.37L178.51-23.37L178.51-23.37Q178.79-22.82 178.87-22.11L178.87-22.11L178.87-22.11Q178.95-21.41 178.95-20.67L178.95-20.67L178.95-17.58L180.39-17.58L180.39-17.58Q180.84-17.58 181.30-17.53L181.30-17.53L181.30-17.53Q181.76-17.49 182.12-17.28L182.12-17.28L182.12-17.28Q182.48-17.07 182.70-16.65L182.70-16.65L182.70-16.65Q182.92-16.22 182.92-15.47L182.92-15.47L182.92-15.47Q182.92-14.75 182.70-14.33L182.70-14.33L182.70-14.33Q182.48-13.90 182.12-13.69L182.12-13.69L182.12-13.69Q181.76-13.48 181.30-13.42L181.30-13.42L181.30-13.42Q180.84-13.36 180.39-13.36L180.39-13.36L178.95-13.36L178.95-7.21L178.95-7.21Q178.95-6.86 178.97-6.46L178.97-6.46L178.97-6.46Q179.00-6.06 179.16-5.73L179.16-5.73L179.16-5.73Q179.31-5.40 179.63-5.18L179.63-5.18L179.63-5.18Q179.95-4.96 180.53-4.96L180.53-4.96L180.53-4.96Q181.16-4.96 181.61-4.86L181.61-4.86L181.61-4.86Q182.06-4.76 182.35-4.52L182.35-4.52L182.35-4.52Q182.64-4.27 182.78-3.83L182.78-3.83L182.78-3.83Q182.92-3.39 182.92-2.71L182.92-2.71L182.92-2.71Q182.92-2.00 182.59-1.49L182.59-1.49L182.59-1.49Q182.27-0.98 181.72-0.65L181.72-0.65L181.72-0.65Q181.18-0.32 180.46-0.16L180.46-0.16L180.46-0.16Q179.74 0 178.95 0L178.95 0L178.95 0Q177.70 0 176.81-0.26L176.81-0.26L176.81-0.26Q175.92-0.53 175.33-1.01L175.33-1.01L175.33-1.01Q174.74-1.49 174.40-2.17L174.40-2.17L174.40-2.17Q174.06-2.85 173.89-3.69L173.89-3.69L173.89-3.69Q173.72-4.54 173.68-5.51L173.68-5.51L173.68-5.51Q173.64-6.49 173.64-7.56L173.64-7.56L173.64-13.36L172.65-13.36L172.65-13.36Q172.20-13.36 171.75-13.42L171.75-13.42L171.75-13.42Q171.30-13.48 170.95-13.69L170.95-13.69L170.95-13.69Q170.60-13.90 170.38-14.33L170.38-14.33L170.38-14.33Q170.16-14.75 170.16-15.47L170.16-15.47L170.16-15.47Q170.16-16.22 170.38-16.65L170.38-16.65L170.38-16.65Q170.60-17.07 170.95-17.28L170.95-17.28L170.95-17.28Q171.30-17.49 171.75-17.53L171.75-17.53L171.75-17.53Q172.20-17.58 172.65-17.58L172.65-17.58ZM185.77-6.61L185.77-10.97L185.77-10.97Q185.77-12.59 186.21-13.71L186.21-13.71L186.21-13.71Q186.64-14.84 187.34-15.59L187.34-15.59L187.34-15.59Q188.03-16.35 188.89-16.77L188.89-16.77L188.89-16.77Q189.74-17.19 190.56-17.40L190.56-17.40L190.56-17.40Q191.39-17.61 192.10-17.67L192.10-17.67L192.10-17.67Q192.81-17.72 193.22-17.72L193.22-17.72L193.22-17.72Q193.62-17.72 194.33-17.67L194.33-17.67L194.33-17.67Q195.03-17.61 195.83-17.40L195.83-17.40L195.83-17.40Q196.63-17.19 197.45-16.77L197.45-16.77L197.45-16.77Q198.26-16.35 198.92-15.59L198.92-15.59L198.92-15.59Q199.58-14.84 200.00-13.71L200.00-13.71L200.00-13.71Q200.43-12.59 200.43-10.97L200.43-10.97L200.43-6.61L200.43-6.61Q200.43-4.99 200.00-3.87L200.00-3.87L200.00-3.87Q199.58-2.74 198.92-1.99L198.92-1.99L198.92-1.99Q198.26-1.23 197.45-0.81L197.45-0.81L197.45-0.81Q196.63-0.39 195.83-0.18L195.83-0.18L195.83-0.18Q195.03 0.04 194.33 0.09L194.33 0.09L194.33 0.09Q193.62 0.14 193.22 0.14L193.22 0.14L193.22 0.14Q192.81 0.14 192.10 0.09L192.10 0.09L192.10 0.09Q191.39 0.04 190.56-0.18L190.56-0.18L190.56-0.18Q189.74-0.39 188.89-0.81L188.89-0.81L188.89-0.81Q188.03-1.23 187.34-1.99L187.34-1.99L187.34-1.99Q186.64-2.74 186.21-3.87L186.21-3.87L186.21-3.87Q185.77-4.99 185.77-6.61L185.77-6.61ZM191.18-11.74L191.18-5.38L191.18-5.38Q191.20-4.87 191.43-4.48L191.43-4.48L191.43-4.48Q191.62-4.13 192.03-3.86L192.03-3.86L192.03-3.86Q192.45-3.59 193.22-3.59L193.22-3.59L193.22-3.59Q193.96-3.59 194.35-3.86L194.35-3.86L194.35-3.86Q194.75-4.13 194.94-4.48L194.94-4.48L194.94-4.48Q195.15-4.87 195.19-5.38L195.19-5.38L195.19-11.74L195.19-11.74Q195.15-12.27 194.94-12.71L194.94-12.71L194.94-12.71Q194.75-13.06 194.35-13.37L194.35-13.37L194.35-13.37Q193.96-13.68 193.22-13.68L193.22-13.68L193.22-13.68Q192.45-13.68 192.03-13.37L192.03-13.37L192.03-13.37Q191.62-13.06 191.43-12.71L191.43-12.71L191.43-12.71Q191.20-12.27 191.18-11.74L191.18-11.74ZM215.33-14.94L215.33-14.94L215.33-14.94Q215.33-13.57 214.66-12.94L214.66-12.94L214.66-12.94Q213.98-12.30 212.73-12.30L212.73-12.30L212.73-12.30Q212.55-12.30 212.23-12.28L212.23-12.28L212.23-12.28Q211.90-12.25 211.54-12.14L211.54-12.14L211.54-12.14Q211.17-12.02 210.79-11.80L210.79-11.80L210.79-11.80Q210.41-11.58 210.09-11.21L210.09-11.21L210.09-11.21Q209.78-10.83 209.58-10.25L209.58-10.25L209.58-10.25Q209.39-9.67 209.39-8.86L209.39-8.86L209.39-3.83L209.39-3.83Q209.39-3.11 209.31-2.43L209.31-2.43L209.31-2.43Q209.23-1.74 208.95-1.20L208.95-1.20L208.95-1.20Q208.67-0.67 208.14-0.33L208.14-0.33L208.14-0.33Q207.62 0 206.72 0L206.72 0L206.72 0Q205.84 0 205.33-0.33L205.33-0.33L205.33-0.33Q204.82-0.67 204.55-1.20L204.55-1.20L204.55-1.20Q204.28-1.74 204.20-2.43L204.20-2.43L204.20-2.43Q204.12-3.11 204.12-3.83L204.12-3.83L204.12-13.68L204.12-13.68Q204.12-14.41 204.20-15.11L204.20-15.11L204.20-15.11Q204.28-15.80 204.55-16.35L204.55-16.35L204.55-16.35Q204.82-16.89 205.33-17.22L205.33-17.22L205.33-17.22Q205.84-17.54 206.72-17.54L206.72-17.54L206.72-17.54Q207.62-17.54 208.10-17.15L208.10-17.15L208.10-17.15Q208.58-16.75 208.81-16.13L208.81-16.13L208.81-16.13Q209.04-15.50 209.07-14.74L209.07-14.74L209.07-14.74Q209.11-13.97 209.11-13.25L209.11-13.25L209.39-13.25L209.39-13.25Q209.64-14.24 210.04-15.04L210.04-15.04L210.04-15.04Q210.45-15.84 210.94-16.39L210.94-16.39L210.94-16.39Q211.43-16.95 211.99-17.24L211.99-17.24L211.99-17.24Q212.55-17.54 213.12-17.54L213.12-17.54L213.12-17.54Q213.80-17.54 214.23-17.39L214.23-17.39L214.23-17.39Q214.66-17.24 214.91-16.93L214.91-16.93L214.91-16.93Q215.16-16.61 215.24-16.12L215.24-16.12L215.24-16.12Q215.33-15.63 215.33-14.94ZM219.76 7.03L219.76 7.03L219.76 7.03Q217.76 7.03 216.91 6.46L216.91 6.46L216.91 6.46Q216.07 5.89 216.07 4.78L216.07 4.78L216.07 4.78Q216.07 4.24 216.22 3.87L216.22 3.87L216.22 3.87Q216.37 3.50 216.63 3.27L216.63 3.27L216.63 3.27Q216.90 3.04 217.24 2.94L217.24 2.94L217.24 2.94Q217.58 2.85 217.97 2.85L217.97 2.85L217.97 2.85Q218.23 2.85 218.46 2.87L218.46 2.87L218.46 2.87Q218.69 2.88 218.85 2.88L218.85 2.88L218.85 2.88Q219.18 2.88 219.49 2.49L219.49 2.49L219.49 2.49Q219.80 2.09 220.09 1.49L220.09 1.49L220.09 1.49Q220.38 0.90 220.68 0.21L220.68 0.21L220.68 0.21Q220.97-0.47 221.27-1.05L221.27-1.05L220.99-1.76L220.99-1.76Q220.48-3.04 219.92-4.46L219.92-4.46L219.92-4.46Q219.36-5.87 218.80-7.32L218.80-7.32L218.80-7.32Q218.25-8.77 217.71-10.21L217.71-10.21L217.71-10.21Q217.18-11.65 216.74-13.01L216.74-13.01L216.74-13.01Q216.54-13.57 216.41-14.12L216.41-14.12L216.41-14.12Q216.28-14.66 216.28-15.19L216.28-15.19L216.28-15.19Q216.28-15.70 216.49-16.14L216.49-16.14L216.49-16.14Q216.70-16.58 217.07-16.89L217.07-16.89L217.07-16.89Q217.44-17.21 217.92-17.39L217.92-17.39L217.92-17.39Q218.41-17.58 218.95-17.58L218.95-17.58L218.95-17.58Q219.45-17.58 219.86-17.37L219.86-17.37L219.86-17.37Q220.27-17.16 220.60-16.79L220.60-16.79L220.60-16.79Q220.92-16.42 221.17-15.94L221.17-15.94L221.17-15.94Q221.41-15.47 221.59-14.94L221.59-14.94L223.95-7.52L226.20-14.94L226.20-14.94Q226.35-15.43 226.60-15.93L226.60-15.93L226.60-15.93Q226.85-16.42 227.18-16.80L227.18-16.80L227.18-16.80Q227.51-17.17 227.94-17.41L227.94-17.41L227.94-17.41Q228.36-17.65 228.87-17.65L228.87-17.65L228.87-17.65Q229.38-17.65 229.84-17.46L229.84-17.46L229.84-17.46Q230.31-17.26 230.65-16.92L230.65-16.92L230.65-16.92Q230.99-16.58 231.20-16.10L231.20-16.10L231.20-16.10Q231.40-15.63 231.40-15.08L231.40-15.08L231.40-15.08Q231.40-14.55 231.27-14.04L231.27-14.04L231.27-14.04Q231.13-13.52 230.94-13.01L230.94-13.01L226.72-1.83L226.72-1.83Q226.35-0.88 225.92 0.15L225.92 0.15L225.92 0.15Q225.49 1.18 224.98 2.16L224.98 2.16L224.98 2.16Q224.47 3.15 223.89 4.03L223.89 4.03L223.89 4.03Q223.31 4.90 222.66 5.57L222.66 5.57L222.66 5.57Q222.01 6.24 221.28 6.64L221.28 6.64L221.28 6.64Q220.55 7.03 219.76 7.03Z" fill="#444"></path></g></g><style>text {
  font-size: 64px;
  font-family: Arial Black;
  dominant-baseline: central;
  text-anchor: middle;
}</style></svg>